<svg xmlns="http://www.w3.org/2000/svg" xmlns:xlink="http://www.w3.org/1999/xlink" width="500" zoomAndPan="magnify" viewBox="0 0 375 374.999991" height="500" preserveAspectRatio="xMidYMid meet" version="1.0"><defs><g/><clipPath id="a9b31c6e8a"><path d="M 150 168 L 201 168 L 201 212.65625 L 150 212.65625 Z M 150 168 " clip-rule="nonzero"/></clipPath><clipPath id="6c0300b112"><path d="M 195 72.40625 L 262 72.40625 L 262 131 L 195 131 Z M 195 72.40625 " clip-rule="nonzero"/></clipPath></defs><path fill="#011821" d="M 144.320312 144.597656 L 154.746094 162.59375 L 144.320312 180.644531 L 123.515625 180.644531 L 113.089844 162.597656 L 123.515625 144.601562 Z M 144.320312 144.597656 " fill-opacity="1" fill-rule="nonzero"/><path fill="#e50243" d="M 188.679688 112.1875 L 201.371094 134.121094 L 188.679688 156.058594 L 163.40625 156.058594 L 150.714844 134.121094 L 163.402344 112.183594 Z M 188.679688 112.1875 " fill-opacity="1" fill-rule="nonzero"/><g clip-path="url(#a9b31c6e8a)"><path fill="#2e424d" d="M 188.238281 168.992188 L 200.878906 190.925781 L 188.238281 212.863281 L 162.910156 212.863281 L 150.21875 190.925781 L 162.910156 168.992188 Z M 188.238281 168.992188 " fill-opacity="1" fill-rule="nonzero"/></g><g clip-path="url(#6c0300b112)"><path fill="#b778ff" d="M 245.238281 72.402344 L 261.910156 101.269531 L 245.238281 130.191406 L 211.847656 130.191406 L 195.171875 101.269531 L 211.847656 72.402344 Z M 245.238281 72.402344 " fill-opacity="1" fill-rule="nonzero"/></g><g fill="#ffffff" fill-opacity="1"><g transform="translate(65.941406, 277.193699)"><g><path d="M 40.734375 -6.9375 C 40.992188 -6.582031 41.210938 -6.144531 41.390625 -5.625 C 41.566406 -5.113281 41.65625 -4.640625 41.65625 -4.203125 C 41.65625 -3.003906 41.195312 -2.003906 40.28125 -1.203125 C 39.375 -0.398438 38.320312 0 37.125 0 C 36.550781 0 35.992188 -0.128906 35.453125 -0.390625 C 34.921875 -0.660156 34.476562 -1.039062 34.125 -1.53125 L 19.65625 -20.59375 L 13.328125 -14.53125 L 13.328125 -4.0625 C 13.328125 -2.863281 12.9375 -1.882812 12.15625 -1.125 C 11.382812 -0.375 10.375 0 9.125 0 C 7.925781 0 6.9375 -0.382812 6.15625 -1.15625 C 5.382812 -1.9375 5 -2.90625 5 -4.0625 L 5 -42.59375 C 5 -43.75 5.398438 -44.710938 6.203125 -45.484375 C 7.003906 -46.265625 8.023438 -46.65625 9.265625 -46.65625 C 10.460938 -46.65625 11.4375 -46.273438 12.1875 -45.515625 C 12.945312 -44.765625 13.328125 -43.789062 13.328125 -42.59375 L 13.328125 -24.46875 L 34.65625 -45.453125 C 35.675781 -46.484375 36.765625 -47 37.921875 -47 C 38.941406 -47 39.804688 -46.570312 40.515625 -45.71875 C 41.234375 -44.875 41.59375 -43.988281 41.59375 -43.0625 C 41.59375 -42.125 41.191406 -41.253906 40.390625 -40.453125 L 25.859375 -26.59375 Z M 40.734375 -6.9375 "/></g></g></g><g fill="#ffffff" fill-opacity="1"><g transform="translate(109.601277, 277.193699)"><g><path d="M 11.859375 -4.0625 C 11.859375 -2.90625 11.476562 -1.9375 10.71875 -1.15625 C 9.96875 -0.382812 9.015625 0 7.859375 0 C 6.703125 0 5.742188 -0.382812 4.984375 -1.15625 C 4.234375 -1.9375 3.859375 -2.90625 3.859375 -4.0625 L 3.859375 -31.59375 C 3.859375 -32.75 4.234375 -33.710938 4.984375 -34.484375 C 5.742188 -35.265625 6.703125 -35.65625 7.859375 -35.65625 C 9.015625 -35.65625 9.96875 -35.265625 10.71875 -34.484375 C 11.476562 -33.710938 11.859375 -32.75 11.859375 -31.59375 Z M 7.796875 -40 C 6.285156 -40 5.21875 -40.238281 4.59375 -40.71875 C 3.96875 -41.207031 3.65625 -42.078125 3.65625 -43.328125 L 3.65625 -44.59375 C 3.65625 -45.832031 3.988281 -46.695312 4.65625 -47.1875 C 5.320312 -47.675781 6.390625 -47.921875 7.859375 -47.921875 C 9.410156 -47.921875 10.5 -47.675781 11.125 -47.1875 C 11.75 -46.695312 12.0625 -45.832031 12.0625 -44.59375 L 12.0625 -43.328125 C 12.0625 -42.035156 11.738281 -41.15625 11.09375 -40.6875 C 10.445312 -40.226562 9.347656 -40 7.796875 -40 Z M 7.796875 -40 "/></g></g></g><g fill="#ffffff" fill-opacity="1"><g transform="translate(125.332165, 277.193699)"><g><path d="M 13 -4.0625 C 13 -2.90625 12.609375 -1.9375 11.828125 -1.15625 C 11.054688 -0.382812 10.09375 0 8.9375 0 C 7.820312 0 6.882812 -0.382812 6.125 -1.15625 C 5.375 -1.9375 5 -2.90625 5 -4.0625 L 5 -45.265625 C 5 -46.421875 5.382812 -47.382812 6.15625 -48.15625 C 6.9375 -48.9375 7.90625 -49.328125 9.0625 -49.328125 C 10.175781 -49.328125 11.109375 -48.9375 11.859375 -48.15625 C 12.617188 -47.382812 13 -46.421875 13 -45.265625 Z M 13 -4.0625 "/></g></g></g><g fill="#ffffff" fill-opacity="1"><g transform="translate(143.32936, 277.193699)"><g><path d="M 38.59375 -17.796875 C 38.59375 -14.242188 37.789062 -11.054688 36.1875 -8.234375 C 34.59375 -5.410156 32.40625 -3.21875 29.625 -1.65625 C 26.851562 -0.101562 23.800781 0.671875 20.46875 0.671875 C 17.082031 0.671875 14.007812 -0.101562 11.25 -1.65625 C 8.5 -3.21875 6.320312 -5.410156 4.71875 -8.234375 C 3.125 -11.054688 2.328125 -14.242188 2.328125 -17.796875 C 2.328125 -21.347656 3.125 -24.535156 4.71875 -27.359375 C 6.320312 -30.179688 8.5 -32.378906 11.25 -33.953125 C 14.007812 -35.535156 17.082031 -36.328125 20.46875 -36.328125 C 23.800781 -36.328125 26.851562 -35.535156 29.625 -33.953125 C 32.40625 -32.378906 34.59375 -30.179688 36.1875 -27.359375 C 37.789062 -24.535156 38.59375 -21.347656 38.59375 -17.796875 Z M 30.59375 -17.796875 C 30.59375 -19.972656 30.132812 -21.914062 29.21875 -23.625 C 28.3125 -25.34375 27.09375 -26.664062 25.5625 -27.59375 C 24.03125 -28.53125 22.332031 -29 20.46875 -29 C 18.59375 -29 16.890625 -28.53125 15.359375 -27.59375 C 13.828125 -26.664062 12.601562 -25.34375 11.6875 -23.625 C 10.78125 -21.914062 10.328125 -19.972656 10.328125 -17.796875 C 10.328125 -15.617188 10.78125 -13.6875 11.6875 -12 C 12.601562 -10.3125 13.828125 -9 15.359375 -8.0625 C 16.890625 -7.132812 18.59375 -6.671875 20.46875 -6.671875 C 22.332031 -6.671875 24.03125 -7.132812 25.5625 -8.0625 C 27.09375 -9 28.3125 -10.3125 29.21875 -12 C 30.132812 -13.6875 30.59375 -15.617188 30.59375 -17.796875 Z M 30.59375 -17.796875 "/></g></g></g><g fill="#ffffff" fill-opacity="1"><g transform="translate(184.256325, 277.193699)"><g><path d="M 39.390625 -25.203125 C 40.546875 -25.203125 41.5 -24.8125 42.25 -24.03125 C 43.007812 -23.25 43.390625 -22.28125 43.390625 -21.125 L 43.390625 -7 C 43.390625 -5.445312 42.703125 -4.25 41.328125 -3.40625 C 36.972656 -0.6875 32.195312 0.671875 27 0.671875 C 22.59375 0.671875 18.523438 -0.40625 14.796875 -2.5625 C 11.066406 -4.71875 8.113281 -7.628906 5.9375 -11.296875 C 3.757812 -14.960938 2.671875 -18.972656 2.671875 -23.328125 C 2.671875 -27.679688 3.757812 -31.691406 5.9375 -35.359375 C 8.113281 -39.023438 11.066406 -41.9375 14.796875 -44.09375 C 18.523438 -46.25 22.59375 -47.328125 27 -47.328125 C 31.394531 -47.328125 35.210938 -46.4375 38.453125 -44.65625 C 39.117188 -44.300781 39.617188 -43.832031 39.953125 -43.25 C 40.285156 -42.675781 40.453125 -42.054688 40.453125 -41.390625 C 40.453125 -40.285156 40.085938 -39.320312 39.359375 -38.5 C 38.628906 -37.675781 37.726562 -37.265625 36.65625 -37.265625 C 35.988281 -37.265625 35.257812 -37.441406 34.46875 -37.796875 C 32.0625 -38.816406 29.570312 -39.328125 27 -39.328125 C 24.15625 -39.328125 21.53125 -38.601562 19.125 -37.15625 C 16.726562 -35.71875 14.828125 -33.773438 13.421875 -31.328125 C 12.023438 -28.878906 11.328125 -26.210938 11.328125 -23.328125 C 11.328125 -20.441406 12.023438 -17.773438 13.421875 -15.328125 C 14.828125 -12.890625 16.726562 -10.945312 19.125 -9.5 C 21.53125 -8.050781 24.15625 -7.328125 27 -7.328125 C 28.238281 -7.328125 29.566406 -7.4375 30.984375 -7.65625 C 32.410156 -7.882812 33.660156 -8.175781 34.734375 -8.53125 L 34.734375 -17.203125 L 28.46875 -17.203125 C 27.3125 -17.203125 26.34375 -17.578125 25.5625 -18.328125 C 24.78125 -19.085938 24.390625 -20.046875 24.390625 -21.203125 C 24.390625 -22.359375 24.78125 -23.3125 25.5625 -24.0625 C 26.34375 -24.820312 27.3125 -25.203125 28.46875 -25.203125 Z M 39.390625 -25.203125 "/></g></g></g><g fill="#ffffff" fill-opacity="1"><g transform="translate(230.649102, 277.193699)"><g><path d="M 36.328125 -18.65625 C 36.285156 -17.59375 35.863281 -16.726562 35.0625 -16.0625 C 34.257812 -15.394531 33.328125 -15.0625 32.265625 -15.0625 L 10.265625 -15.0625 C 10.796875 -12.4375 12.015625 -10.378906 13.921875 -8.890625 C 15.835938 -7.410156 17.992188 -6.671875 20.390625 -6.671875 C 22.210938 -6.671875 23.632812 -6.835938 24.65625 -7.171875 C 25.6875 -7.503906 26.5 -7.859375 27.09375 -8.234375 C 27.695312 -8.609375 28.109375 -8.863281 28.328125 -9 C 29.128906 -9.394531 29.882812 -9.59375 30.59375 -9.59375 C 31.53125 -9.59375 32.332031 -9.257812 33 -8.59375 C 33.664062 -7.925781 34 -7.148438 34 -6.265625 C 34 -5.066406 33.375 -3.976562 32.125 -3 C 30.882812 -1.976562 29.21875 -1.109375 27.125 -0.390625 C 25.039062 0.316406 22.929688 0.671875 20.796875 0.671875 C 17.066406 0.671875 13.8125 -0.101562 11.03125 -1.65625 C 8.25 -3.21875 6.101562 -5.363281 4.59375 -8.09375 C 3.082031 -10.832031 2.328125 -13.910156 2.328125 -17.328125 C 2.328125 -21.148438 3.125 -24.503906 4.71875 -27.390625 C 6.320312 -30.285156 8.4375 -32.5 11.0625 -34.03125 C 13.6875 -35.5625 16.488281 -36.328125 19.46875 -36.328125 C 22.394531 -36.328125 25.15625 -35.523438 27.75 -33.921875 C 30.351562 -32.328125 32.429688 -30.171875 33.984375 -27.453125 C 35.546875 -24.742188 36.328125 -21.8125 36.328125 -18.65625 Z M 19.46875 -29 C 14.3125 -29 11.265625 -26.578125 10.328125 -21.734375 L 27.796875 -21.734375 L 27.796875 -22.203125 C 27.617188 -24.066406 26.707031 -25.664062 25.0625 -27 C 23.414062 -28.332031 21.550781 -29 19.46875 -29 Z M 19.46875 -29 "/></g></g></g><g fill="#ffffff" fill-opacity="1"><g transform="translate(269.309748, 277.193699)"><g><path d="M 23.390625 -36.328125 C 27.929688 -36.328125 31.066406 -34.984375 32.796875 -32.296875 C 34.523438 -29.609375 35.390625 -25.882812 35.390625 -21.125 L 35.390625 -4.0625 C 35.390625 -2.90625 35.007812 -1.9375 34.25 -1.15625 C 33.5 -0.382812 32.546875 0 31.390625 0 C 30.234375 0 29.273438 -0.382812 28.515625 -1.15625 C 27.765625 -1.9375 27.390625 -2.90625 27.390625 -4.0625 L 27.390625 -21.125 C 27.390625 -23.570312 26.878906 -25.492188 25.859375 -26.890625 C 24.835938 -28.296875 23.082031 -29 20.59375 -29 C 18.019531 -29 16 -28.253906 14.53125 -26.765625 C 13.0625 -25.273438 12.328125 -23.394531 12.328125 -21.125 L 12.328125 -4.0625 C 12.328125 -2.90625 11.945312 -1.9375 11.1875 -1.15625 C 10.4375 -0.382812 9.484375 0 8.328125 0 C 7.171875 0 6.210938 -0.382812 5.453125 -1.15625 C 4.703125 -1.9375 4.328125 -2.90625 4.328125 -4.0625 L 4.328125 -31.59375 C 4.328125 -32.75 4.703125 -33.710938 5.453125 -34.484375 C 6.210938 -35.265625 7.171875 -35.65625 8.328125 -35.65625 C 9.484375 -35.65625 10.4375 -35.265625 11.1875 -34.484375 C 11.945312 -33.710938 12.328125 -32.75 12.328125 -31.59375 L 12.328125 -30.46875 C 13.523438 -32.0625 15.09375 -33.4375 17.03125 -34.59375 C 18.96875 -35.75 21.085938 -36.328125 23.390625 -36.328125 Z M 23.390625 -36.328125 "/></g></g></g><g fill="#ffffff" fill-opacity="1"><g transform="translate(70.326215, 305.42705)"><g><path d="M 1.578125 0 L 1.578125 -9.796875 L 5.3125 -9.796875 C 6.207031 -9.796875 6.925781 -9.5625 7.46875 -9.09375 C 8.007812 -8.632812 8.28125 -8.019531 8.28125 -7.25 C 8.28125 -6.71875 8.144531 -6.257812 7.875 -5.875 C 7.601562 -5.5 7.234375 -5.222656 6.765625 -5.046875 C 7.328125 -4.878906 7.765625 -4.585938 8.078125 -4.171875 C 8.390625 -3.765625 8.546875 -3.265625 8.546875 -2.671875 C 8.546875 -1.847656 8.269531 -1.195312 7.71875 -0.71875 C 7.164062 -0.238281 6.410156 0 5.453125 0 Z M 2.4375 -0.796875 L 5.4375 -0.796875 C 6.144531 -0.796875 6.695312 -0.960938 7.09375 -1.296875 C 7.488281 -1.640625 7.6875 -2.109375 7.6875 -2.703125 C 7.6875 -3.304688 7.484375 -3.773438 7.078125 -4.109375 C 6.679688 -4.441406 6.117188 -4.609375 5.390625 -4.609375 L 2.4375 -4.609375 Z M 2.4375 -5.390625 L 5.28125 -5.390625 C 5.945312 -5.390625 6.46875 -5.546875 6.84375 -5.859375 C 7.21875 -6.179688 7.40625 -6.628906 7.40625 -7.203125 C 7.40625 -7.753906 7.21875 -8.191406 6.84375 -8.515625 C 6.46875 -8.835938 5.953125 -9 5.296875 -9 L 2.4375 -9 Z M 2.4375 -5.390625 "/></g></g></g><g fill="#ffffff" fill-opacity="1"><g transform="translate(85.384949, 305.42705)"><g><path d="M 1.578125 0 L 1.578125 -9.796875 L 5.203125 -9.796875 C 5.867188 -9.796875 6.441406 -9.671875 6.921875 -9.421875 C 7.410156 -9.171875 7.789062 -8.816406 8.0625 -8.359375 C 8.332031 -7.910156 8.46875 -7.375 8.46875 -6.75 C 8.46875 -5.9375 8.242188 -5.265625 7.796875 -4.734375 C 7.347656 -4.210938 6.738281 -3.882812 5.96875 -3.75 L 8.625 0 L 7.609375 0 L 4.96875 -3.6875 L 2.4375 -3.6875 L 2.4375 0 Z M 2.4375 -4.5 L 5.125 -4.5 C 5.894531 -4.5 6.5 -4.695312 6.9375 -5.09375 C 7.382812 -5.5 7.609375 -6.050781 7.609375 -6.75 C 7.609375 -7.4375 7.382812 -7.976562 6.9375 -8.375 C 6.5 -8.78125 5.894531 -8.984375 5.125 -8.984375 L 2.4375 -8.984375 Z M 2.4375 -4.5 "/></g></g></g><g fill="#ffffff" fill-opacity="1"><g transform="translate(100.555618, 305.42705)"><g><path d="M 1.578125 0 L 1.578125 -9.796875 L 2.4375 -9.796875 L 2.4375 0 Z M 1.578125 0 "/></g></g></g><g fill="#ffffff" fill-opacity="1"><g transform="translate(110.171381, 305.42705)"><g><path d="M 1.578125 0 L 1.578125 -9.796875 L 4.671875 -9.796875 C 5.722656 -9.796875 6.628906 -9.59375 7.390625 -9.1875 C 8.148438 -8.78125 8.734375 -8.210938 9.140625 -7.484375 C 9.554688 -6.753906 9.765625 -5.894531 9.765625 -4.90625 C 9.765625 -3.925781 9.554688 -3.066406 9.140625 -2.328125 C 8.734375 -1.585938 8.148438 -1.015625 7.390625 -0.609375 C 6.628906 -0.203125 5.722656 0 4.671875 0 Z M 2.4375 -0.8125 L 4.671875 -0.8125 C 5.546875 -0.8125 6.296875 -0.976562 6.921875 -1.3125 C 7.554688 -1.644531 8.046875 -2.117188 8.390625 -2.734375 C 8.734375 -3.347656 8.90625 -4.070312 8.90625 -4.90625 C 8.90625 -5.726562 8.734375 -6.445312 8.390625 -7.0625 C 8.046875 -7.675781 7.554688 -8.148438 6.921875 -8.484375 C 6.285156 -8.816406 5.523438 -8.984375 4.640625 -8.984375 L 2.4375 -8.984375 Z M 2.4375 -0.8125 "/></g></g></g><g fill="#ffffff" fill-opacity="1"><g transform="translate(126.43344, 305.42705)"><g><path d="M 5.859375 0.1875 C 4.890625 0.1875 4.03125 -0.03125 3.28125 -0.46875 C 2.539062 -0.90625 1.957031 -1.503906 1.53125 -2.265625 C 1.101562 -3.035156 0.890625 -3.914062 0.890625 -4.90625 C 0.890625 -5.894531 1.101562 -6.769531 1.53125 -7.53125 C 1.957031 -8.300781 2.539062 -8.898438 3.28125 -9.328125 C 4.019531 -9.765625 4.867188 -9.984375 5.828125 -9.984375 C 6.578125 -9.984375 7.265625 -9.847656 7.890625 -9.578125 C 8.523438 -9.304688 9.066406 -8.929688 9.515625 -8.453125 C 9.960938 -7.972656 10.289062 -7.414062 10.5 -6.78125 L 9.578125 -6.78125 C 9.265625 -7.507812 8.785156 -8.082031 8.140625 -8.5 C 7.503906 -8.914062 6.742188 -9.125 5.859375 -9.125 C 5.046875 -9.125 4.332031 -8.945312 3.71875 -8.59375 C 3.101562 -8.238281 2.625 -7.742188 2.28125 -7.109375 C 1.9375 -6.472656 1.765625 -5.738281 1.765625 -4.90625 C 1.765625 -4.070312 1.9375 -3.332031 2.28125 -2.6875 C 2.625 -2.050781 3.101562 -1.554688 3.71875 -1.203125 C 4.34375 -0.847656 5.054688 -0.671875 5.859375 -0.671875 C 6.628906 -0.671875 7.300781 -0.828125 7.875 -1.140625 C 8.457031 -1.453125 8.921875 -1.882812 9.265625 -2.4375 C 9.617188 -3 9.828125 -3.632812 9.890625 -4.34375 L 5.546875 -4.34375 L 5.546875 -5.15625 L 10.796875 -5.15625 C 10.804688 -4.113281 10.601562 -3.191406 10.1875 -2.390625 C 9.78125 -1.585938 9.203125 -0.957031 8.453125 -0.5 C 7.710938 -0.0390625 6.847656 0.1875 5.859375 0.1875 Z M 5.859375 0.1875 "/></g></g></g><g fill="#ffffff" fill-opacity="1"><g transform="translate(143.674954, 305.42705)"><g><path d="M 1.578125 0 L 1.578125 -9.796875 L 2.4375 -9.796875 L 2.4375 0 Z M 1.578125 0 "/></g></g></g><g fill="#ffffff" fill-opacity="1"><g transform="translate(153.29072, 305.42705)"><g><path d="M 1.578125 0 L 1.578125 -9.796875 L 2.375 -9.796875 L 8.34375 -1.46875 L 8.34375 -9.796875 L 9.1875 -9.796875 L 9.1875 0 L 8.390625 0 L 2.421875 -8.34375 L 2.421875 0 Z M 1.578125 0 "/></g></g></g><g fill="#ffffff" fill-opacity="1"><g transform="translate(169.650729, 305.42705)"><g><path d="M 5.859375 0.1875 C 4.890625 0.1875 4.03125 -0.03125 3.28125 -0.46875 C 2.539062 -0.90625 1.957031 -1.503906 1.53125 -2.265625 C 1.101562 -3.035156 0.890625 -3.914062 0.890625 -4.90625 C 0.890625 -5.894531 1.101562 -6.769531 1.53125 -7.53125 C 1.957031 -8.300781 2.539062 -8.898438 3.28125 -9.328125 C 4.019531 -9.765625 4.867188 -9.984375 5.828125 -9.984375 C 6.578125 -9.984375 7.265625 -9.847656 7.890625 -9.578125 C 8.523438 -9.304688 9.066406 -8.929688 9.515625 -8.453125 C 9.960938 -7.972656 10.289062 -7.414062 10.5 -6.78125 L 9.578125 -6.78125 C 9.265625 -7.507812 8.785156 -8.082031 8.140625 -8.5 C 7.503906 -8.914062 6.742188 -9.125 5.859375 -9.125 C 5.046875 -9.125 4.332031 -8.945312 3.71875 -8.59375 C 3.101562 -8.238281 2.625 -7.742188 2.28125 -7.109375 C 1.9375 -6.472656 1.765625 -5.738281 1.765625 -4.90625 C 1.765625 -4.070312 1.9375 -3.332031 2.28125 -2.6875 C 2.625 -2.050781 3.101562 -1.554688 3.71875 -1.203125 C 4.34375 -0.847656 5.054688 -0.671875 5.859375 -0.671875 C 6.628906 -0.671875 7.300781 -0.828125 7.875 -1.140625 C 8.457031 -1.453125 8.921875 -1.882812 9.265625 -2.4375 C 9.617188 -3 9.828125 -3.632812 9.890625 -4.34375 L 5.546875 -4.34375 L 5.546875 -5.15625 L 10.796875 -5.15625 C 10.804688 -4.113281 10.601562 -3.191406 10.1875 -2.390625 C 9.78125 -1.585938 9.203125 -0.957031 8.453125 -0.5 C 7.710938 -0.0390625 6.847656 0.1875 5.859375 0.1875 Z M 5.859375 0.1875 "/></g></g></g><g fill="#ffffff" fill-opacity="1"><g transform="translate(186.892236, 305.42705)"><g/></g></g><g fill="#ffffff" fill-opacity="1"><g transform="translate(196.24215, 305.42705)"><g><path d="M 1.578125 0 L 1.578125 -9.796875 L 4.6875 -9.796875 C 5.820312 -9.796875 6.707031 -9.515625 7.34375 -8.953125 C 7.976562 -8.390625 8.296875 -7.597656 8.296875 -6.578125 C 8.296875 -5.554688 7.976562 -4.765625 7.34375 -4.203125 C 6.707031 -3.640625 5.820312 -3.359375 4.6875 -3.359375 L 2.4375 -3.359375 L 2.4375 0 Z M 2.4375 -4.140625 L 4.671875 -4.140625 C 6.523438 -4.140625 7.453125 -4.945312 7.453125 -6.5625 C 7.453125 -8.175781 6.523438 -8.984375 4.671875 -8.984375 L 2.4375 -8.984375 Z M 2.4375 -4.140625 "/></g></g></g><g fill="#ffffff" fill-opacity="1"><g transform="translate(210.797157, 305.42705)"><g><path d="M 1.578125 0 L 1.578125 -9.796875 L 5.203125 -9.796875 C 5.867188 -9.796875 6.441406 -9.671875 6.921875 -9.421875 C 7.410156 -9.171875 7.789062 -8.816406 8.0625 -8.359375 C 8.332031 -7.910156 8.46875 -7.375 8.46875 -6.75 C 8.46875 -5.9375 8.242188 -5.265625 7.796875 -4.734375 C 7.347656 -4.210938 6.738281 -3.882812 5.96875 -3.75 L 8.625 0 L 7.609375 0 L 4.96875 -3.6875 L 2.4375 -3.6875 L 2.4375 0 Z M 2.4375 -4.5 L 5.125 -4.5 C 5.894531 -4.5 6.5 -4.695312 6.9375 -5.09375 C 7.382812 -5.5 7.609375 -6.050781 7.609375 -6.75 C 7.609375 -7.4375 7.382812 -7.976562 6.9375 -8.375 C 6.5 -8.78125 5.894531 -8.984375 5.125 -8.984375 L 2.4375 -8.984375 Z M 2.4375 -4.5 "/></g></g></g><g fill="#ffffff" fill-opacity="1"><g transform="translate(225.967821, 305.42705)"><g><path d="M 5.953125 0.1875 C 4.960938 0.1875 4.085938 -0.0234375 3.328125 -0.453125 C 2.566406 -0.890625 1.96875 -1.488281 1.53125 -2.25 C 1.101562 -3.019531 0.890625 -3.90625 0.890625 -4.90625 C 0.890625 -5.894531 1.101562 -6.769531 1.53125 -7.53125 C 1.96875 -8.300781 2.566406 -8.898438 3.328125 -9.328125 C 4.085938 -9.765625 4.960938 -9.984375 5.953125 -9.984375 C 6.953125 -9.984375 7.832031 -9.765625 8.59375 -9.328125 C 9.351562 -8.898438 9.941406 -8.300781 10.359375 -7.53125 C 10.785156 -6.769531 11 -5.894531 11 -4.90625 C 11 -3.90625 10.785156 -3.019531 10.359375 -2.25 C 9.941406 -1.488281 9.351562 -0.890625 8.59375 -0.453125 C 7.832031 -0.0234375 6.953125 0.1875 5.953125 0.1875 Z M 1.765625 -4.90625 C 1.765625 -4.070312 1.941406 -3.332031 2.296875 -2.6875 C 2.648438 -2.050781 3.140625 -1.554688 3.765625 -1.203125 C 4.398438 -0.847656 5.128906 -0.671875 5.953125 -0.671875 C 6.785156 -0.671875 7.515625 -0.847656 8.140625 -1.203125 C 8.773438 -1.554688 9.269531 -2.050781 9.625 -2.6875 C 9.976562 -3.332031 10.15625 -4.070312 10.15625 -4.90625 C 10.15625 -5.738281 9.976562 -6.472656 9.625 -7.109375 C 9.269531 -7.742188 8.773438 -8.238281 8.140625 -8.59375 C 7.515625 -8.945312 6.785156 -9.125 5.953125 -9.125 C 5.128906 -9.125 4.398438 -8.945312 3.765625 -8.59375 C 3.140625 -8.238281 2.648438 -7.742188 2.296875 -7.109375 C 1.941406 -6.472656 1.765625 -5.738281 1.765625 -4.90625 Z M 1.765625 -4.90625 "/></g></g></g><g fill="#ffffff" fill-opacity="1"><g transform="translate(243.46119, 305.42705)"><g><path d="M 3.90625 0 L 3.90625 -8.984375 L 0.53125 -8.984375 L 0.53125 -9.796875 L 8.140625 -9.796875 L 8.140625 -8.984375 L 4.75 -8.984375 L 4.75 0 Z M 3.90625 0 "/></g></g></g><g fill="#ffffff" fill-opacity="1"><g transform="translate(257.722359, 305.42705)"><g><path d="M 1.578125 0 L 1.578125 -9.796875 L 7.34375 -9.796875 L 7.34375 -9 L 2.4375 -9 L 2.4375 -5.390625 L 6.984375 -5.390625 L 6.984375 -4.609375 L 2.4375 -4.609375 L 2.4375 -0.796875 L 7.5 -0.796875 L 7.5 0 Z M 1.578125 0 "/></g></g></g><g fill="#ffffff" fill-opacity="1"><g transform="translate(271.843612, 305.42705)"><g><path d="M 1.578125 0 L 1.578125 -9.796875 L 2.4375 -9.796875 L 2.4375 0 Z M 1.578125 0 "/></g></g></g><g fill="#ffffff" fill-opacity="1"><g transform="translate(281.459372, 305.42705)"><g><path d="M 1.578125 0 L 1.578125 -9.796875 L 2.375 -9.796875 L 8.34375 -1.46875 L 8.34375 -9.796875 L 9.1875 -9.796875 L 9.1875 0 L 8.390625 0 L 2.421875 -8.34375 L 2.421875 0 Z M 1.578125 0 "/></g></g></g><g fill="#ffffff" fill-opacity="1"><g transform="translate(297.819387, 305.42705)"><g><path d="M 4.734375 0.1875 C 3.984375 0.1875 3.332031 0.0625 2.78125 -0.1875 C 2.226562 -0.445312 1.796875 -0.804688 1.484375 -1.265625 C 1.171875 -1.734375 1.003906 -2.28125 0.984375 -2.90625 L 1.8125 -2.90625 C 1.863281 -2.1875 2.148438 -1.625 2.671875 -1.21875 C 3.191406 -0.820312 3.878906 -0.625 4.734375 -0.625 C 5.535156 -0.625 6.171875 -0.789062 6.640625 -1.125 C 7.109375 -1.457031 7.34375 -1.910156 7.34375 -2.484375 C 7.34375 -2.992188 7.125 -3.410156 6.6875 -3.734375 C 6.257812 -4.054688 5.550781 -4.320312 4.5625 -4.53125 C 3.363281 -4.8125 2.492188 -5.171875 1.953125 -5.609375 C 1.410156 -6.046875 1.140625 -6.632812 1.140625 -7.375 C 1.140625 -8.15625 1.4375 -8.785156 2.03125 -9.265625 C 2.625 -9.742188 3.445312 -9.984375 4.5 -9.984375 C 5.582031 -9.984375 6.429688 -9.71875 7.046875 -9.1875 C 7.671875 -8.664062 8 -7.9375 8.03125 -7 L 7.203125 -7 C 7.160156 -7.6875 6.898438 -8.21875 6.421875 -8.59375 C 5.953125 -8.976562 5.3125 -9.171875 4.5 -9.171875 C 3.695312 -9.171875 3.078125 -9.003906 2.640625 -8.671875 C 2.203125 -8.347656 1.984375 -7.914062 1.984375 -7.375 C 1.984375 -6.894531 2.191406 -6.492188 2.609375 -6.171875 C 3.023438 -5.847656 3.75 -5.566406 4.78125 -5.328125 C 6.019531 -5.046875 6.898438 -4.675781 7.421875 -4.21875 C 7.941406 -3.769531 8.203125 -3.191406 8.203125 -2.484375 C 8.203125 -1.671875 7.890625 -1.019531 7.265625 -0.53125 C 6.640625 -0.0507812 5.796875 0.1875 4.734375 0.1875 Z M 4.734375 0.1875 "/></g></g></g><g fill="#ffffff" fill-opacity="1"><g transform="translate(53.451216, 318.927049)"><g><path d="M 5.15625 0.171875 C 4.007812 0.171875 3.101562 -0.179688 2.4375 -0.890625 C 1.78125 -1.609375 1.453125 -2.597656 1.453125 -3.859375 L 1.453125 -9.796875 L 2.296875 -9.796875 L 2.296875 -3.90625 C 2.296875 -2.863281 2.546875 -2.0625 3.046875 -1.5 C 3.546875 -0.9375 4.25 -0.65625 5.15625 -0.65625 C 6.070312 -0.65625 6.773438 -0.9375 7.265625 -1.5 C 7.765625 -2.0625 8.015625 -2.863281 8.015625 -3.90625 L 8.015625 -9.796875 L 8.84375 -9.796875 L 8.84375 -3.859375 C 8.84375 -2.597656 8.515625 -1.609375 7.859375 -0.890625 C 7.203125 -0.179688 6.300781 0.171875 5.15625 0.171875 Z M 5.15625 0.171875 "/></g></g></g><g fill="#ffffff" fill-opacity="1"><g transform="translate(69.349477, 318.927049)"><g><path d="M 1.578125 0 L 1.578125 -9.796875 L 2.375 -9.796875 L 8.34375 -1.46875 L 8.34375 -9.796875 L 9.1875 -9.796875 L 9.1875 0 L 8.390625 0 L 2.421875 -8.34375 L 2.421875 0 Z M 1.578125 0 "/></g></g></g><g fill="#ffffff" fill-opacity="1"><g transform="translate(85.709485, 318.927049)"><g><path d="M 1.578125 0 L 1.578125 -9.796875 L 2.4375 -9.796875 L 2.4375 -0.8125 L 7.40625 -0.8125 L 7.40625 0 Z M 1.578125 0 "/></g></g></g><g fill="#ffffff" fill-opacity="1"><g transform="translate(99.18709, 318.927049)"><g><path d="M 5.953125 0.1875 C 4.960938 0.1875 4.085938 -0.0234375 3.328125 -0.453125 C 2.566406 -0.890625 1.96875 -1.488281 1.53125 -2.25 C 1.101562 -3.019531 0.890625 -3.90625 0.890625 -4.90625 C 0.890625 -5.894531 1.101562 -6.769531 1.53125 -7.53125 C 1.96875 -8.300781 2.566406 -8.898438 3.328125 -9.328125 C 4.085938 -9.765625 4.960938 -9.984375 5.953125 -9.984375 C 6.953125 -9.984375 7.832031 -9.765625 8.59375 -9.328125 C 9.351562 -8.898438 9.941406 -8.300781 10.359375 -7.53125 C 10.785156 -6.769531 11 -5.894531 11 -4.90625 C 11 -3.90625 10.785156 -3.019531 10.359375 -2.25 C 9.941406 -1.488281 9.351562 -0.890625 8.59375 -0.453125 C 7.832031 -0.0234375 6.953125 0.1875 5.953125 0.1875 Z M 1.765625 -4.90625 C 1.765625 -4.070312 1.941406 -3.332031 2.296875 -2.6875 C 2.648438 -2.050781 3.140625 -1.554688 3.765625 -1.203125 C 4.398438 -0.847656 5.128906 -0.671875 5.953125 -0.671875 C 6.785156 -0.671875 7.515625 -0.847656 8.140625 -1.203125 C 8.773438 -1.554688 9.269531 -2.050781 9.625 -2.6875 C 9.976562 -3.332031 10.15625 -4.070312 10.15625 -4.90625 C 10.15625 -5.738281 9.976562 -6.472656 9.625 -7.109375 C 9.269531 -7.742188 8.773438 -8.238281 8.140625 -8.59375 C 7.515625 -8.945312 6.785156 -9.125 5.953125 -9.125 C 5.128906 -9.125 4.398438 -8.945312 3.765625 -8.59375 C 3.140625 -8.238281 2.648438 -7.742188 2.296875 -7.109375 C 1.941406 -6.472656 1.765625 -5.738281 1.765625 -4.90625 Z M 1.765625 -4.90625 "/></g></g></g><g fill="#ffffff" fill-opacity="1"><g transform="translate(116.680465, 318.927049)"><g><path d="M 5.859375 0.1875 C 4.898438 0.1875 4.046875 -0.03125 3.296875 -0.46875 C 2.554688 -0.90625 1.96875 -1.503906 1.53125 -2.265625 C 1.101562 -3.035156 0.890625 -3.914062 0.890625 -4.90625 C 0.890625 -5.894531 1.101562 -6.769531 1.53125 -7.53125 C 1.96875 -8.300781 2.554688 -8.898438 3.296875 -9.328125 C 4.046875 -9.765625 4.898438 -9.984375 5.859375 -9.984375 C 6.609375 -9.984375 7.300781 -9.84375 7.9375 -9.5625 C 8.570312 -9.289062 9.117188 -8.90625 9.578125 -8.40625 C 10.035156 -7.90625 10.367188 -7.3125 10.578125 -6.625 L 9.6875 -6.625 C 9.40625 -7.394531 8.921875 -8.003906 8.234375 -8.453125 C 7.554688 -8.898438 6.769531 -9.125 5.875 -9.125 C 5.082031 -9.125 4.375 -8.945312 3.75 -8.59375 C 3.132812 -8.238281 2.648438 -7.742188 2.296875 -7.109375 C 1.941406 -6.472656 1.765625 -5.738281 1.765625 -4.90625 C 1.765625 -4.070312 1.941406 -3.332031 2.296875 -2.6875 C 2.648438 -2.050781 3.132812 -1.554688 3.75 -1.203125 C 4.375 -0.847656 5.082031 -0.671875 5.875 -0.671875 C 6.789062 -0.671875 7.597656 -0.90625 8.296875 -1.375 C 9.003906 -1.84375 9.492188 -2.484375 9.765625 -3.296875 L 10.671875 -3.296875 C 10.472656 -2.585938 10.140625 -1.972656 9.671875 -1.453125 C 9.203125 -0.929688 8.644531 -0.523438 8 -0.234375 C 7.351562 0.046875 6.640625 0.1875 5.859375 0.1875 Z M 5.859375 0.1875 "/></g></g></g><g fill="#ffffff" fill-opacity="1"><g transform="translate(133.782051, 318.927049)"><g><path d="M 1.578125 0 L 1.578125 -9.796875 L 2.4375 -9.796875 L 2.4375 -5.390625 L 3.984375 -5.390625 C 4.753906 -5.390625 5.328125 -5.523438 5.703125 -5.796875 C 6.078125 -6.066406 6.378906 -6.488281 6.609375 -7.0625 L 7.640625 -9.796875 L 8.546875 -9.796875 L 7.359375 -6.734375 C 7.210938 -6.328125 7.03125 -5.984375 6.8125 -5.703125 C 6.601562 -5.429688 6.335938 -5.207031 6.015625 -5.03125 L 8.953125 0 L 7.96875 0 L 5.234375 -4.71875 C 4.890625 -4.625 4.472656 -4.578125 3.984375 -4.578125 L 2.4375 -4.578125 L 2.4375 0 Z M 1.578125 0 "/></g></g></g><g fill="#ffffff" fill-opacity="1"><g transform="translate(148.92474, 318.927049)"><g><path d="M 1.578125 0 L 1.578125 -9.796875 L 2.4375 -9.796875 L 2.4375 0 Z M 1.578125 0 "/></g></g></g><g fill="#ffffff" fill-opacity="1"><g transform="translate(158.540506, 318.927049)"><g><path d="M 1.578125 0 L 1.578125 -9.796875 L 2.375 -9.796875 L 8.34375 -1.46875 L 8.34375 -9.796875 L 9.1875 -9.796875 L 9.1875 0 L 8.390625 0 L 2.421875 -8.34375 L 2.421875 0 Z M 1.578125 0 "/></g></g></g><g fill="#ffffff" fill-opacity="1"><g transform="translate(174.900509, 318.927049)"><g><path d="M 5.859375 0.1875 C 4.890625 0.1875 4.03125 -0.03125 3.28125 -0.46875 C 2.539062 -0.90625 1.957031 -1.503906 1.53125 -2.265625 C 1.101562 -3.035156 0.890625 -3.914062 0.890625 -4.90625 C 0.890625 -5.894531 1.101562 -6.769531 1.53125 -7.53125 C 1.957031 -8.300781 2.539062 -8.898438 3.28125 -9.328125 C 4.019531 -9.765625 4.867188 -9.984375 5.828125 -9.984375 C 6.578125 -9.984375 7.265625 -9.847656 7.890625 -9.578125 C 8.523438 -9.304688 9.066406 -8.929688 9.515625 -8.453125 C 9.960938 -7.972656 10.289062 -7.414062 10.5 -6.78125 L 9.578125 -6.78125 C 9.265625 -7.507812 8.785156 -8.082031 8.140625 -8.5 C 7.503906 -8.914062 6.742188 -9.125 5.859375 -9.125 C 5.046875 -9.125 4.332031 -8.945312 3.71875 -8.59375 C 3.101562 -8.238281 2.625 -7.742188 2.28125 -7.109375 C 1.9375 -6.472656 1.765625 -5.738281 1.765625 -4.90625 C 1.765625 -4.070312 1.9375 -3.332031 2.28125 -2.6875 C 2.625 -2.050781 3.101562 -1.554688 3.71875 -1.203125 C 4.34375 -0.847656 5.054688 -0.671875 5.859375 -0.671875 C 6.628906 -0.671875 7.300781 -0.828125 7.875 -1.140625 C 8.457031 -1.453125 8.921875 -1.882812 9.265625 -2.4375 C 9.617188 -3 9.828125 -3.632812 9.890625 -4.34375 L 5.546875 -4.34375 L 5.546875 -5.15625 L 10.796875 -5.15625 C 10.804688 -4.113281 10.601562 -3.191406 10.1875 -2.390625 C 9.78125 -1.585938 9.203125 -0.957031 8.453125 -0.5 C 7.710938 -0.0390625 6.847656 0.1875 5.859375 0.1875 Z M 5.859375 0.1875 "/></g></g></g><g fill="#ffffff" fill-opacity="1"><g transform="translate(192.142017, 318.927049)"><g/></g></g><g fill="#ffffff" fill-opacity="1"><g transform="translate(201.491931, 318.927049)"><g><path d="M 3.90625 0 L 3.90625 -8.984375 L 0.53125 -8.984375 L 0.53125 -9.796875 L 8.140625 -9.796875 L 8.140625 -8.984375 L 4.75 -8.984375 L 4.75 0 Z M 3.90625 0 "/></g></g></g><g fill="#ffffff" fill-opacity="1"><g transform="translate(215.753099, 318.927049)"><g><path d="M 8.171875 0 L 8.171875 -4.59375 L 2.4375 -4.59375 L 2.4375 0 L 1.578125 0 L 1.578125 -9.796875 L 2.4375 -9.796875 L 2.4375 -5.40625 L 8.171875 -5.40625 L 8.171875 -9.796875 L 9.03125 -9.796875 L 9.03125 0 Z M 8.171875 0 "/></g></g></g><g fill="#ffffff" fill-opacity="1"><g transform="translate(231.95918, 318.927049)"><g><path d="M 1.578125 0 L 1.578125 -9.796875 L 7.34375 -9.796875 L 7.34375 -9 L 2.4375 -9 L 2.4375 -5.390625 L 6.984375 -5.390625 L 6.984375 -4.609375 L 2.4375 -4.609375 L 2.4375 -0.796875 L 7.5 -0.796875 L 7.5 0 Z M 1.578125 0 "/></g></g></g><g fill="#ffffff" fill-opacity="1"><g transform="translate(246.080445, 318.927049)"><g><path d="M 1.578125 0 L 1.578125 -9.796875 L 5.203125 -9.796875 C 5.867188 -9.796875 6.441406 -9.671875 6.921875 -9.421875 C 7.410156 -9.171875 7.789062 -8.816406 8.0625 -8.359375 C 8.332031 -7.910156 8.46875 -7.375 8.46875 -6.75 C 8.46875 -5.9375 8.242188 -5.265625 7.796875 -4.734375 C 7.347656 -4.210938 6.738281 -3.882812 5.96875 -3.75 L 8.625 0 L 7.609375 0 L 4.96875 -3.6875 L 2.4375 -3.6875 L 2.4375 0 Z M 2.4375 -4.5 L 5.125 -4.5 C 5.894531 -4.5 6.5 -4.695312 6.9375 -5.09375 C 7.382812 -5.5 7.609375 -6.050781 7.609375 -6.75 C 7.609375 -7.4375 7.382812 -7.976562 6.9375 -8.375 C 6.5 -8.78125 5.894531 -8.984375 5.125 -8.984375 L 2.4375 -8.984375 Z M 2.4375 -4.5 "/></g></g></g><g fill="#ffffff" fill-opacity="1"><g transform="translate(261.251121, 318.927049)"><g><path d="M 0.3125 0 L 4.375 -9.796875 L 5.1875 -9.796875 L 9.234375 0 L 8.34375 0 L 7.328125 -2.46875 L 2.21875 -2.46875 L 1.21875 0 Z M 2.5625 -3.25 L 7 -3.25 L 4.78125 -8.640625 Z M 2.5625 -3.25 "/></g></g></g><g fill="#ffffff" fill-opacity="1"><g transform="translate(276.40779, 318.927049)"><g><path d="M 1.578125 0 L 1.578125 -9.796875 L 4.6875 -9.796875 C 5.820312 -9.796875 6.707031 -9.515625 7.34375 -8.953125 C 7.976562 -8.390625 8.296875 -7.597656 8.296875 -6.578125 C 8.296875 -5.554688 7.976562 -4.765625 7.34375 -4.203125 C 6.707031 -3.640625 5.820312 -3.359375 4.6875 -3.359375 L 2.4375 -3.359375 L 2.4375 0 Z M 2.4375 -4.140625 L 4.671875 -4.140625 C 6.523438 -4.140625 7.453125 -4.945312 7.453125 -6.5625 C 7.453125 -8.175781 6.523438 -8.984375 4.671875 -8.984375 L 2.4375 -8.984375 Z M 2.4375 -4.140625 "/></g></g></g><g fill="#ffffff" fill-opacity="1"><g transform="translate(290.962797, 318.927049)"><g><path d="M 1.578125 0 L 1.578125 -9.796875 L 2.4375 -9.796875 L 2.4375 0 Z M 1.578125 0 "/></g></g></g><g fill="#ffffff" fill-opacity="1"><g transform="translate(300.578557, 318.927049)"><g><path d="M 1.578125 0 L 1.578125 -9.796875 L 7.34375 -9.796875 L 7.34375 -9 L 2.4375 -9 L 2.4375 -5.390625 L 6.984375 -5.390625 L 6.984375 -4.609375 L 2.4375 -4.609375 L 2.4375 -0.796875 L 7.5 -0.796875 L 7.5 0 Z M 1.578125 0 "/></g></g></g><g fill="#ffffff" fill-opacity="1"><g transform="translate(314.69981, 318.927049)"><g><path d="M 4.734375 0.1875 C 3.984375 0.1875 3.332031 0.0625 2.78125 -0.1875 C 2.226562 -0.445312 1.796875 -0.804688 1.484375 -1.265625 C 1.171875 -1.734375 1.003906 -2.28125 0.984375 -2.90625 L 1.8125 -2.90625 C 1.863281 -2.1875 2.148438 -1.625 2.671875 -1.21875 C 3.191406 -0.820312 3.878906 -0.625 4.734375 -0.625 C 5.535156 -0.625 6.171875 -0.789062 6.640625 -1.125 C 7.109375 -1.457031 7.34375 -1.910156 7.34375 -2.484375 C 7.34375 -2.992188 7.125 -3.410156 6.6875 -3.734375 C 6.257812 -4.054688 5.550781 -4.320312 4.5625 -4.53125 C 3.363281 -4.8125 2.492188 -5.171875 1.953125 -5.609375 C 1.410156 -6.046875 1.140625 -6.632812 1.140625 -7.375 C 1.140625 -8.15625 1.4375 -8.785156 2.03125 -9.265625 C 2.625 -9.742188 3.445312 -9.984375 4.5 -9.984375 C 5.582031 -9.984375 6.429688 -9.71875 7.046875 -9.1875 C 7.671875 -8.664062 8 -7.9375 8.03125 -7 L 7.203125 -7 C 7.160156 -7.6875 6.898438 -8.21875 6.421875 -8.59375 C 5.953125 -8.976562 5.3125 -9.171875 4.5 -9.171875 C 3.695312 -9.171875 3.078125 -9.003906 2.640625 -8.671875 C 2.203125 -8.347656 1.984375 -7.914062 1.984375 -7.375 C 1.984375 -6.894531 2.191406 -6.492188 2.609375 -6.171875 C 3.023438 -5.847656 3.75 -5.566406 4.78125 -5.328125 C 6.019531 -5.046875 6.898438 -4.675781 7.421875 -4.21875 C 7.941406 -3.769531 8.203125 -3.191406 8.203125 -2.484375 C 8.203125 -1.671875 7.890625 -1.019531 7.265625 -0.53125 C 6.640625 -0.0507812 5.796875 0.1875 4.734375 0.1875 Z M 4.734375 0.1875 "/></g></g></g></svg>