<?xml version="1.0" encoding="UTF-8"?>
<svg width="500" height="500" version="1.0" viewBox="0 0 375 375" xmlns="http://www.w3.org/2000/svg" zoomAndPan="magnify">
 <defs>
  <clipPath id="6c0300b112">
   <path d="m195 72.406h67v58.594h-67z"/>
  </clipPath>
  <clipPath id="5668376b10">
   <path d="m195 72.406h67v58.594h-67z"/>
  </clipPath>
 </defs>
 <path d="m144.32 144.6 10.426 17.996-10.426 18.051h-20.805l-10.426-18.047 10.426-17.996z" fill="#011821"/>
 <path d="m188.68 112.19 12.691 21.934-12.691 21.938h-25.273l-12.691-21.938 12.688-21.938z" fill="#e50243"/>
 <g clip-path="url(#6c0300b112)">
  <path d="m245.24 72.402 16.672 28.867-16.672 28.922h-33.391l-16.676-28.922 16.676-28.867z" fill="#b778ff"/>
 </g>
 <g fill="#fff">
  <g transform="translate(65.941 277.19)">
   <path d="m40.734-6.9375c0.25781 0.35547 0.47656 0.79297 0.65625 1.3125 0.17578 0.51172 0.26562 0.98438 0.26562 1.4219 0 1.1992-0.46094 2.1992-1.375 3-0.90625 0.80469-1.9609 1.2031-3.1562 1.2031-0.57422 0-1.1328-0.12891-1.6719-0.39062-0.53125-0.26953-0.97656-0.64844-1.3281-1.1406l-14.469-19.062-6.3281 6.0625v10.469c0 1.1992-0.39062 2.1797-1.1719 2.9375-0.77344 0.75-1.7812 1.125-3.0312 1.125-1.1992 0-2.1875-0.38281-2.9688-1.1562-0.77344-0.78125-1.1562-1.75-1.1562-2.9062v-38.531c0-1.1562 0.39844-2.1172 1.2031-2.8906 0.80078-0.78125 1.8203-1.1719 3.0625-1.1719 1.1953 0 2.1719 0.38281 2.9219 1.1406 0.75781 0.75 1.1406 1.7266 1.1406 2.9219v18.125l21.328-20.984c1.0195-1.0312 2.1094-1.5469 3.2656-1.5469 1.0195 0 1.8828 0.42969 2.5938 1.2812 0.71875 0.84375 1.0781 1.7305 1.0781 2.6562 0 0.9375-0.40234 1.8086-1.2031 2.6094l-14.531 13.859z"/>
  </g>
  <g transform="translate(109.6 277.19)">
   <path d="m11.859-4.0625c0 1.1562-0.38281 2.125-1.1406 2.9062-0.75 0.77344-1.7031 1.1562-2.8594 1.1562s-2.1172-0.38281-2.875-1.1562c-0.75-0.78125-1.125-1.75-1.125-2.9062v-27.531c0-1.1562 0.375-2.1172 1.125-2.8906 0.75781-0.78125 1.7188-1.1719 2.875-1.1719s2.1094 0.39062 2.8594 1.1719c0.75781 0.77344 1.1406 1.7344 1.1406 2.8906zm-4.0625-35.938c-1.5117 0-2.5781-0.23828-3.2031-0.71875-0.625-0.48828-0.9375-1.3594-0.9375-2.6094v-1.2656c0-1.2383 0.33203-2.1016 1-2.5938 0.66406-0.48828 1.7344-0.73438 3.2031-0.73438 1.5508 0 2.6406 0.24609 3.2656 0.73438 0.625 0.49219 0.9375 1.3555 0.9375 2.5938v1.2656c0 1.293-0.32422 2.1719-0.96875 2.6406-0.64844 0.46094-1.7461 0.6875-3.2969 0.6875z"/>
  </g>
  <g transform="translate(125.33 277.19)">
   <path d="m13-4.0625c0 1.1562-0.39062 2.125-1.1719 2.9062-0.77344 0.77344-1.7344 1.1562-2.8906 1.1562-1.1172 0-2.0547-0.38281-2.8125-1.1562-0.75-0.78125-1.125-1.75-1.125-2.9062v-41.203c0-1.1562 0.38281-2.1172 1.1562-2.8906 0.78125-0.78125 1.75-1.1719 2.9062-1.1719 1.1133 0 2.0469 0.39062 2.7969 1.1719 0.75781 0.77344 1.1406 1.7344 1.1406 2.8906z"/>
  </g>
  <g transform="translate(143.33 277.19)">
   <path d="m38.594-17.797c0 3.5547-0.80469 6.7422-2.4062 9.5625-1.5938 2.8242-3.7812 5.0156-6.5625 6.5781-2.7734 1.5547-5.8242 2.3281-9.1562 2.3281-3.3867 0-6.4609-0.77344-9.2188-2.3281-2.75-1.5625-4.9297-3.7539-6.5312-6.5781-1.5938-2.8203-2.3906-6.0078-2.3906-9.5625 0-3.5508 0.79688-6.7383 2.3906-9.5625 1.6016-2.8203 3.7812-5.0195 6.5312-6.5938 2.7578-1.582 5.832-2.375 9.2188-2.375 3.332 0 6.3828 0.79297 9.1562 2.375 2.7812 1.5742 4.9688 3.7734 6.5625 6.5938 1.6016 2.8242 2.4062 6.0117 2.4062 9.5625zm-8 0c0-2.1758-0.46094-4.1172-1.375-5.8281-0.90625-1.7188-2.125-3.0391-3.6562-3.9688-1.5312-0.9375-3.2305-1.4062-5.0938-1.4062-1.875 0-3.5781 0.46875-5.1094 1.4062-1.5312 0.92969-2.7578 2.25-3.6719 3.9688-0.90625 1.7109-1.3594 3.6523-1.3594 5.8281 0 2.1797 0.45312 4.1094 1.3594 5.7969 0.91406 1.6875 2.1406 3 3.6719 3.9375 1.5312 0.92969 3.2344 1.3906 5.1094 1.3906 1.8633 0 3.5625-0.46094 5.0938-1.3906 1.5312-0.9375 2.75-2.25 3.6562-3.9375 0.91406-1.6875 1.375-3.6172 1.375-5.7969z"/>
  </g>
  <g transform="translate(184.26 277.19)">
   <path d="m39.391-25.203c1.1562 0 2.1094 0.39062 2.8594 1.1719 0.75781 0.78125 1.1406 1.75 1.1406 2.9062v14.125c0 1.5547-0.6875 2.75-2.0625 3.5938-4.3555 2.7188-9.1328 4.0781-14.328 4.0781-4.4062 0-8.4766-1.0781-12.203-3.2344-3.7305-2.1562-6.6836-5.0664-8.8594-8.7344-2.1797-3.6641-3.2656-7.6758-3.2656-12.031 0-4.3516 1.0859-8.3633 3.2656-12.031 2.1758-3.6641 5.1289-6.5781 8.8594-8.7344 3.7266-2.1562 7.7969-3.2344 12.203-3.2344 4.3945 0 8.2109 0.89062 11.453 2.6719 0.66406 0.35547 1.1641 0.82422 1.5 1.4062 0.33203 0.57422 0.5 1.1953 0.5 1.8594 0 1.1055-0.36719 2.0703-1.0938 2.8906-0.73047 0.82422-1.6328 1.2344-2.7031 1.2344-0.66797 0-1.3984-0.17578-2.1875-0.53125-2.4062-1.0195-4.8984-1.5312-7.4688-1.5312-2.8438 0-5.4688 0.72656-7.875 2.1719-2.3984 1.4375-4.2969 3.3828-5.7031 5.8281-1.3984 2.4492-2.0938 5.1172-2.0938 8 0 2.8867 0.69531 5.5547 2.0938 8 1.4062 2.4375 3.3047 4.3828 5.7031 5.8281 2.4062 1.4492 5.0312 2.1719 7.875 2.1719 1.2383 0 2.5664-0.10938 3.9844-0.32812 1.4258-0.22656 2.6758-0.51953 3.75-0.875v-8.6719h-6.2656c-1.1562 0-2.125-0.375-2.9062-1.125-0.78125-0.75781-1.1719-1.7188-1.1719-2.875s0.39062-2.1094 1.1719-2.8594c0.78125-0.75781 1.75-1.1406 2.9062-1.1406z"/>
  </g>
  <g transform="translate(230.65 277.19)">
   <path d="m36.328-18.656c-0.042969 1.0625-0.46484 1.9297-1.2656 2.5938-0.80469 0.66797-1.7344 1-2.7969 1h-22c0.53125 2.625 1.75 4.6836 3.6562 6.1719 1.9141 1.4805 4.0703 2.2188 6.4688 2.2188 1.8203 0 3.2422-0.16406 4.2656-0.5 1.0312-0.33203 1.8438-0.6875 2.4375-1.0625 0.60156-0.375 1.0156-0.62891 1.2344-0.76562 0.80078-0.39453 1.5547-0.59375 2.2656-0.59375 0.9375 0 1.7383 0.33594 2.4062 1 0.66406 0.66797 1 1.4453 1 2.3281 0 1.1992-0.625 2.2891-1.875 3.2656-1.2422 1.0234-2.9062 1.8906-5 2.6094-2.0859 0.70703-4.1953 1.0625-6.3281 1.0625-3.7305 0-6.9844-0.77344-9.7656-2.3281-2.7812-1.5625-4.9297-3.707-6.4375-6.4375-1.5117-2.7383-2.2656-5.8164-2.2656-9.2344 0-3.8203 0.79688-7.1758 2.3906-10.062 1.6016-2.8945 3.7188-5.1094 6.3438-6.6406s5.4258-2.2969 8.4062-2.2969c2.9258 0 5.6875 0.80469 8.2812 2.4062 2.6016 1.5938 4.6797 3.75 6.2344 6.4688 1.5625 2.7109 2.3438 5.6406 2.3438 8.7969zm-16.859-10.344c-5.1562 0-8.2031 2.4219-9.1406 7.2656h17.469v-0.46875c-0.17969-1.8633-1.0898-3.4609-2.7344-4.7969-1.6484-1.332-3.5117-2-5.5938-2z"/>
  </g>
  <g transform="translate(269.31 277.19)">
   <path d="m23.391-36.328c4.5391 0 7.6758 1.3438 9.4062 4.0312 1.7266 2.6875 2.5938 6.4141 2.5938 11.172v17.062c0 1.1562-0.38281 2.125-1.1406 2.9062-0.75 0.77344-1.7031 1.1562-2.8594 1.1562s-2.1172-0.38281-2.875-1.1562c-0.75-0.78125-1.125-1.75-1.125-2.9062v-17.062c0-2.4453-0.51172-4.3672-1.5312-5.7656-1.0234-1.4062-2.7773-2.1094-5.2656-2.1094-2.5742 0-4.5938 0.74609-6.0625 2.2344-1.4688 1.4922-2.2031 3.3711-2.2031 5.6406v17.062c0 1.1562-0.38281 2.125-1.1406 2.9062-0.75 0.77344-1.7031 1.1562-2.8594 1.1562s-2.1172-0.38281-2.875-1.1562c-0.75-0.78125-1.125-1.75-1.125-2.9062v-27.531c0-1.1562 0.375-2.1172 1.125-2.8906 0.75781-0.78125 1.7188-1.1719 2.875-1.1719s2.1094 0.39062 2.8594 1.1719c0.75781 0.77344 1.1406 1.7344 1.1406 2.8906v1.125c1.1953-1.5938 2.7656-2.9688 4.7031-4.125s4.0547-1.7344 6.3594-1.7344z"/>
  </g>
  <g transform="translate(70.326 305.43)">
   <path d="m1.5781 0v-9.7969h3.7344c0.89453 0 1.6133 0.23438 2.1562 0.70312 0.53906 0.46094 0.8125 1.0742 0.8125 1.8438 0 0.53125-0.13672 0.99219-0.40625 1.375-0.27344 0.375-0.64062 0.65234-1.1094 0.82812 0.5625 0.16797 1 0.46094 1.3125 0.875 0.3125 0.40625 0.46875 0.90625 0.46875 1.5 0 0.82422-0.27734 1.4766-0.82812 1.9531-0.55469 0.48047-1.3086 0.71875-2.2656 0.71875zm0.85938-0.79688h3c0.70703 0 1.2578-0.16406 1.6562-0.5 0.39453-0.34375 0.59375-0.8125 0.59375-1.4062 0-0.60156-0.20312-1.0703-0.60938-1.4062-0.39844-0.33203-0.96094-0.5-1.6875-0.5h-2.9531zm0-4.5938h2.8438c0.66406 0 1.1875-0.15625 1.5625-0.46875 0.375-0.32031 0.5625-0.76953 0.5625-1.3438 0-0.55078-0.1875-0.98828-0.5625-1.3125-0.375-0.32031-0.89062-0.48438-1.5469-0.48438h-2.8594z"/>
  </g>
  <g transform="translate(85.385 305.43)">
   <path d="m1.5781 0v-9.7969h3.625c0.66406 0 1.2383 0.125 1.7188 0.375 0.48828 0.25 0.86719 0.60547 1.1406 1.0625 0.26953 0.44922 0.40625 0.98438 0.40625 1.6094 0 0.8125-0.22656 1.4844-0.67188 2.0156-0.44922 0.52344-1.0586 0.85156-1.8281 0.98438l2.6562 3.75h-1.0156l-2.6406-3.6875h-2.5312v3.6875zm0.85938-4.5h2.6875c0.76953 0 1.375-0.19531 1.8125-0.59375 0.44531-0.40625 0.67188-0.95703 0.67188-1.6562 0-0.6875-0.22656-1.2266-0.67188-1.625-0.4375-0.40625-1.043-0.60938-1.8125-0.60938h-2.6875z"/>
  </g>
  <g transform="translate(100.56 305.43)">
   <path d="m1.5781 0v-9.7969h0.85938v9.7969z"/>
  </g>
  <g transform="translate(110.17 305.43)">
   <path d="m1.5781 0v-9.7969h3.0938c1.0508 0 1.957 0.20312 2.7188 0.60938 0.75781 0.40625 1.3438 0.97656 1.75 1.7031 0.41406 0.73047 0.625 1.5898 0.625 2.5781 0 0.98047-0.21094 1.8398-0.625 2.5781-0.40625 0.74219-0.99219 1.3125-1.75 1.7188-0.76172 0.40625-1.668 0.60938-2.7188 0.60938zm0.85938-0.8125h2.2344c0.875 0 1.625-0.16406 2.25-0.5 0.63281-0.33203 1.125-0.80469 1.4688-1.4219 0.34375-0.61328 0.51562-1.3359 0.51562-2.1719 0-0.82031-0.17188-1.5391-0.51562-2.1562-0.34375-0.61328-0.83594-1.0859-1.4688-1.4219-0.63672-0.33203-1.3984-0.5-2.2812-0.5h-2.2031z"/>
  </g>
  <g transform="translate(126.43 305.43)">
   <path d="m5.8594 0.1875c-0.96875 0-1.8281-0.21875-2.5781-0.65625-0.74219-0.4375-1.3242-1.0352-1.75-1.7969-0.42969-0.76953-0.64062-1.6484-0.64062-2.6406 0-0.98828 0.21094-1.8633 0.64062-2.625 0.42578-0.76953 1.0078-1.3672 1.75-1.7969 0.73828-0.4375 1.5859-0.65625 2.5469-0.65625 0.75 0 1.4375 0.13672 2.0625 0.40625 0.63281 0.27344 1.1758 0.64844 1.625 1.125 0.44531 0.48047 0.77344 1.0391 0.98438 1.6719h-0.92188c-0.3125-0.72656-0.79297-1.3008-1.4375-1.7188-0.63672-0.41406-1.3984-0.625-2.2812-0.625-0.8125 0-1.5273 0.17969-2.1406 0.53125-0.61719 0.35547-1.0938 0.85156-1.4375 1.4844-0.34375 0.63672-0.51562 1.3711-0.51562 2.2031 0 0.83594 0.17188 1.5742 0.51562 2.2188 0.34375 0.63672 0.82031 1.1328 1.4375 1.4844 0.625 0.35547 1.3359 0.53125 2.1406 0.53125 0.76953 0 1.4414-0.15625 2.0156-0.46875 0.58203-0.3125 1.0469-0.74219 1.3906-1.2969 0.35156-0.5625 0.5625-1.1953 0.625-1.9062h-4.3438v-0.8125h5.25c0.007813 1.043-0.19531 1.9648-0.60938 2.7656-0.40625 0.80469-0.98438 1.4336-1.7344 1.8906-0.74219 0.46094-1.6055 0.6875-2.5938 0.6875z"/>
  </g>
  <g transform="translate(143.67 305.43)">
   <path d="m1.5781 0v-9.7969h0.85938v9.7969z"/>
  </g>
  <g transform="translate(153.29 305.43)">
   <path d="m1.5781 0v-9.7969h0.79688l5.9688 8.3281v-8.3281h0.84375v9.7969h-0.79688l-5.9688-8.3438v8.3438z"/>
  </g>
  <g transform="translate(169.65 305.43)">
   <path d="m5.8594 0.1875c-0.96875 0-1.8281-0.21875-2.5781-0.65625-0.74219-0.4375-1.3242-1.0352-1.75-1.7969-0.42969-0.76953-0.64062-1.6484-0.64062-2.6406 0-0.98828 0.21094-1.8633 0.64062-2.625 0.42578-0.76953 1.0078-1.3672 1.75-1.7969 0.73828-0.4375 1.5859-0.65625 2.5469-0.65625 0.75 0 1.4375 0.13672 2.0625 0.40625 0.63281 0.27344 1.1758 0.64844 1.625 1.125 0.44531 0.48047 0.77344 1.0391 0.98438 1.6719h-0.92188c-0.3125-0.72656-0.79297-1.3008-1.4375-1.7188-0.63672-0.41406-1.3984-0.625-2.2812-0.625-0.8125 0-1.5273 0.17969-2.1406 0.53125-0.61719 0.35547-1.0938 0.85156-1.4375 1.4844-0.34375 0.63672-0.51562 1.3711-0.51562 2.2031 0 0.83594 0.17188 1.5742 0.51562 2.2188 0.34375 0.63672 0.82031 1.1328 1.4375 1.4844 0.625 0.35547 1.3359 0.53125 2.1406 0.53125 0.76953 0 1.4414-0.15625 2.0156-0.46875 0.58203-0.3125 1.0469-0.74219 1.3906-1.2969 0.35156-0.5625 0.5625-1.1953 0.625-1.9062h-4.3438v-0.8125h5.25c0.007813 1.043-0.19531 1.9648-0.60938 2.7656-0.40625 0.80469-0.98438 1.4336-1.7344 1.8906-0.74219 0.46094-1.6055 0.6875-2.5938 0.6875z"/>
  </g>
  <g transform="translate(186.89 305.43)"></g>
  <g transform="translate(196.24 305.43)">
   <path d="m1.5781 0v-9.7969h3.1094c1.1328 0 2.0195 0.28125 2.6562 0.84375 0.63281 0.5625 0.95312 1.3555 0.95312 2.375 0 1.0234-0.32031 1.8125-0.95312 2.375-0.63672 0.5625-1.5234 0.84375-2.6562 0.84375h-2.25v3.3594zm0.85938-4.1406h2.2344c1.8516 0 2.7812-0.80469 2.7812-2.4219 0-1.6133-0.92969-2.4219-2.7812-2.4219h-2.2344z"/>
  </g>
  <g transform="translate(210.8 305.43)">
   <path d="m1.5781 0v-9.7969h3.625c0.66406 0 1.2383 0.125 1.7188 0.375 0.48828 0.25 0.86719 0.60547 1.1406 1.0625 0.26953 0.44922 0.40625 0.98438 0.40625 1.6094 0 0.8125-0.22656 1.4844-0.67188 2.0156-0.44922 0.52344-1.0586 0.85156-1.8281 0.98438l2.6562 3.75h-1.0156l-2.6406-3.6875h-2.5312v3.6875zm0.85938-4.5h2.6875c0.76953 0 1.375-0.19531 1.8125-0.59375 0.44531-0.40625 0.67188-0.95703 0.67188-1.6562 0-0.6875-0.22656-1.2266-0.67188-1.625-0.4375-0.40625-1.043-0.60938-1.8125-0.60938h-2.6875z"/>
  </g>
  <g transform="translate(225.97 305.43)">
   <path d="m5.9531 0.1875c-0.99219 0-1.8672-0.21094-2.625-0.64062-0.76172-0.4375-1.3594-1.0352-1.7969-1.7969-0.42969-0.76953-0.64062-1.6562-0.64062-2.6562 0-0.98828 0.21094-1.8633 0.64062-2.625 0.4375-0.76953 1.0352-1.3672 1.7969-1.7969 0.75781-0.4375 1.6328-0.65625 2.625-0.65625 1 0 1.8789 0.21875 2.6406 0.65625 0.75781 0.42969 1.3477 1.0273 1.7656 1.7969 0.42578 0.76172 0.64062 1.6367 0.64062 2.625 0 1-0.21484 1.8867-0.64062 2.6562-0.41797 0.76172-1.0078 1.3594-1.7656 1.7969-0.76172 0.42969-1.6406 0.64062-2.6406 0.64062zm-4.1875-5.0938c0 0.83594 0.17578 1.5742 0.53125 2.2188 0.35156 0.63672 0.84375 1.1328 1.4688 1.4844 0.63281 0.35547 1.3633 0.53125 2.1875 0.53125 0.83203 0 1.5625-0.17578 2.1875-0.53125 0.63281-0.35156 1.1289-0.84766 1.4844-1.4844 0.35156-0.64453 0.53125-1.3828 0.53125-2.2188 0-0.83203-0.17969-1.5664-0.53125-2.2031-0.35547-0.63281-0.85156-1.1289-1.4844-1.4844-0.625-0.35156-1.3555-0.53125-2.1875-0.53125-0.82422 0-1.5547 0.17969-2.1875 0.53125-0.625 0.35547-1.1172 0.85156-1.4688 1.4844-0.35547 0.63672-0.53125 1.3711-0.53125 2.2031z"/>
  </g>
  <g transform="translate(243.46 305.43)">
   <path d="m3.9062 0v-8.9844h-3.375v-0.8125h7.6094v0.8125h-3.3906v8.9844z"/>
  </g>
  <g transform="translate(257.72 305.43)">
   <path d="m1.5781 0v-9.7969h5.7656v0.79688h-4.9062v3.6094h4.5469v0.78125h-4.5469v3.8125h5.0625v0.79688z"/>
  </g>
  <g transform="translate(271.84 305.43)">
   <path d="m1.5781 0v-9.7969h0.85938v9.7969z"/>
  </g>
  <g transform="translate(281.46 305.43)">
   <path d="m1.5781 0v-9.7969h0.79688l5.9688 8.3281v-8.3281h0.84375v9.7969h-0.79688l-5.9688-8.3438v8.3438z"/>
  </g>
  <g transform="translate(297.82 305.43)">
   <path d="m4.7344 0.1875c-0.75 0-1.4023-0.125-1.9531-0.375-0.55469-0.25781-0.98438-0.61719-1.2969-1.0781-0.3125-0.46875-0.48047-1.0156-0.5-1.6406h0.82812c0.050781 0.71875 0.33594 1.2812 0.85938 1.6875 0.51953 0.39844 1.207 0.59375 2.0625 0.59375 0.80078 0 1.4375-0.16406 1.9062-0.5 0.46875-0.33203 0.70312-0.78516 0.70312-1.3594 0-0.50781-0.21875-0.92578-0.65625-1.25-0.42969-0.32031-1.1367-0.58594-2.125-0.79688-1.1992-0.28125-2.0703-0.64062-2.6094-1.0781-0.54297-0.4375-0.8125-1.0234-0.8125-1.7656 0-0.78125 0.29688-1.4102 0.89062-1.8906 0.59375-0.47656 1.4141-0.71875 2.4688-0.71875 1.082 0 1.9297 0.26562 2.5469 0.79688 0.625 0.52344 0.95312 1.25 0.98438 2.1875h-0.82812c-0.042969-0.6875-0.30469-1.2188-0.78125-1.5938-0.46875-0.38281-1.1094-0.57812-1.9219-0.57812-0.80469 0-1.4219 0.16797-1.8594 0.5-0.4375 0.32422-0.65625 0.75781-0.65625 1.2969 0 0.48047 0.20703 0.88281 0.625 1.2031 0.41406 0.32422 1.1406 0.60547 2.1719 0.84375 1.2383 0.28125 2.1172 0.65234 2.6406 1.1094 0.51953 0.44922 0.78125 1.0273 0.78125 1.7344 0 0.8125-0.3125 1.4648-0.9375 1.9531-0.625 0.48047-1.4688 0.71875-2.5312 0.71875z"/>
  </g>
  <g transform="translate(53.451 318.93)">
   <path d="m5.1562 0.17188c-1.1484 0-2.0547-0.35156-2.7188-1.0625-0.65625-0.71875-0.98438-1.707-0.98438-2.9688v-5.9375h0.84375v5.8906c0 1.043 0.25 1.8438 0.75 2.4062s1.2031 0.84375 2.1094 0.84375c0.91406 0 1.6172-0.28125 2.1094-0.84375 0.5-0.5625 0.75-1.3633 0.75-2.4062v-5.8906h0.82812v5.9375c0 1.2617-0.32812 2.25-0.98438 2.9688-0.65625 0.71094-1.5586 1.0625-2.7031 1.0625z"/>
  </g>
  <g transform="translate(69.349 318.93)">
   <path d="m1.5781 0v-9.7969h0.79688l5.9688 8.3281v-8.3281h0.84375v9.7969h-0.79688l-5.9688-8.3438v8.3438z"/>
  </g>
  <g transform="translate(85.709 318.93)">
   <path d="m1.5781 0v-9.7969h0.85938v8.9844h4.9688v0.8125z"/>
  </g>
  <g transform="translate(99.187 318.93)">
   <path d="m5.9531 0.1875c-0.99219 0-1.8672-0.21094-2.625-0.64062-0.76172-0.4375-1.3594-1.0352-1.7969-1.7969-0.42969-0.76953-0.64062-1.6562-0.64062-2.6562 0-0.98828 0.21094-1.8633 0.64062-2.625 0.4375-0.76953 1.0352-1.3672 1.7969-1.7969 0.75781-0.4375 1.6328-0.65625 2.625-0.65625 1 0 1.8789 0.21875 2.6406 0.65625 0.75781 0.42969 1.3477 1.0273 1.7656 1.7969 0.42578 0.76172 0.64062 1.6367 0.64062 2.625 0 1-0.21484 1.8867-0.64062 2.6562-0.41797 0.76172-1.0078 1.3594-1.7656 1.7969-0.76172 0.42969-1.6406 0.64062-2.6406 0.64062zm-4.1875-5.0938c0 0.83594 0.17578 1.5742 0.53125 2.2188 0.35156 0.63672 0.84375 1.1328 1.4688 1.4844 0.63281 0.35547 1.3633 0.53125 2.1875 0.53125 0.83203 0 1.5625-0.17578 2.1875-0.53125 0.63281-0.35156 1.1289-0.84766 1.4844-1.4844 0.35156-0.64453 0.53125-1.3828 0.53125-2.2188 0-0.83203-0.17969-1.5664-0.53125-2.2031-0.35547-0.63281-0.85156-1.1289-1.4844-1.4844-0.625-0.35156-1.3555-0.53125-2.1875-0.53125-0.82422 0-1.5547 0.17969-2.1875 0.53125-0.625 0.35547-1.1172 0.85156-1.4688 1.4844-0.35547 0.63672-0.53125 1.3711-0.53125 2.2031z"/>
  </g>
  <g transform="translate(116.68 318.93)">
   <path d="m5.8594 0.1875c-0.96094 0-1.8125-0.21875-2.5625-0.65625-0.74219-0.4375-1.3281-1.0352-1.7656-1.7969-0.42969-0.76953-0.64062-1.6484-0.64062-2.6406 0-0.98828 0.21094-1.8633 0.64062-2.625 0.4375-0.76953 1.0234-1.3672 1.7656-1.7969 0.75-0.4375 1.6016-0.65625 2.5625-0.65625 0.75 0 1.4414 0.14062 2.0781 0.42188 0.63281 0.27344 1.1797 0.65625 1.6406 1.1562 0.45703 0.5 0.78906 1.0938 1 1.7812h-0.89062c-0.28125-0.76953-0.76562-1.3789-1.4531-1.8281-0.67969-0.44531-1.4648-0.67188-2.3594-0.67188-0.79297 0-1.5 0.17969-2.125 0.53125-0.61719 0.35547-1.1016 0.85156-1.4531 1.4844-0.35547 0.63672-0.53125 1.3711-0.53125 2.2031 0 0.83594 0.17578 1.5742 0.53125 2.2188 0.35156 0.63672 0.83594 1.1328 1.4531 1.4844 0.625 0.35547 1.332 0.53125 2.125 0.53125 0.91406 0 1.7227-0.23438 2.4219-0.70312 0.70703-0.46875 1.1953-1.1094 1.4688-1.9219h0.90625c-0.19922 0.71094-0.53125 1.3242-1 1.8438-0.46875 0.52344-1.0273 0.92969-1.6719 1.2188-0.64844 0.28125-1.3594 0.42188-2.1406 0.42188z"/>
  </g>
  <g transform="translate(133.78 318.93)">
   <path d="m1.5781 0v-9.7969h0.85938v4.4062h1.5469c0.76953 0 1.3438-0.13281 1.7188-0.40625 0.375-0.26953 0.67578-0.69141 0.90625-1.2656l1.0312-2.7344h0.90625l-1.1875 3.0625c-0.14844 0.40625-0.32812 0.75-0.54688 1.0312-0.21094 0.27344-0.47656 0.49609-0.79688 0.67188l2.9375 5.0312h-0.98438l-2.7344-4.7188c-0.34375 0.09375-0.76172 0.14062-1.25 0.14062h-1.5469v4.5781z"/>
  </g>
  <g transform="translate(148.92 318.93)">
   <path d="m1.5781 0v-9.7969h0.85938v9.7969z"/>
  </g>
  <g transform="translate(158.54 318.93)">
   <path d="m1.5781 0v-9.7969h0.79688l5.9688 8.3281v-8.3281h0.84375v9.7969h-0.79688l-5.9688-8.3438v8.3438z"/>
  </g>
  <g transform="translate(174.9 318.93)">
   <path d="m5.8594 0.1875c-0.96875 0-1.8281-0.21875-2.5781-0.65625-0.74219-0.4375-1.3242-1.0352-1.75-1.7969-0.42969-0.76953-0.64062-1.6484-0.64062-2.6406 0-0.98828 0.21094-1.8633 0.64062-2.625 0.42578-0.76953 1.0078-1.3672 1.75-1.7969 0.73828-0.4375 1.5859-0.65625 2.5469-0.65625 0.75 0 1.4375 0.13672 2.0625 0.40625 0.63281 0.27344 1.1758 0.64844 1.625 1.125 0.44531 0.48047 0.77344 1.0391 0.98438 1.6719h-0.92188c-0.3125-0.72656-0.79297-1.3008-1.4375-1.7188-0.63672-0.41406-1.3984-0.625-2.2812-0.625-0.8125 0-1.5273 0.17969-2.1406 0.53125-0.61719 0.35547-1.0938 0.85156-1.4375 1.4844-0.34375 0.63672-0.51562 1.3711-0.51562 2.2031 0 0.83594 0.17188 1.5742 0.51562 2.2188 0.34375 0.63672 0.82031 1.1328 1.4375 1.4844 0.625 0.35547 1.3359 0.53125 2.1406 0.53125 0.76953 0 1.4414-0.15625 2.0156-0.46875 0.58203-0.3125 1.0469-0.74219 1.3906-1.2969 0.35156-0.5625 0.5625-1.1953 0.625-1.9062h-4.3438v-0.8125h5.25c0.007813 1.043-0.19531 1.9648-0.60938 2.7656-0.40625 0.80469-0.98438 1.4336-1.7344 1.8906-0.74219 0.46094-1.6055 0.6875-2.5938 0.6875z"/>
  </g>
  <g transform="translate(192.14 318.93)"></g>
  <g transform="translate(201.49 318.93)">
   <path d="m3.9062 0v-8.9844h-3.375v-0.8125h7.6094v0.8125h-3.3906v8.9844z"/>
  </g>
  <g transform="translate(215.75 318.93)">
   <path d="m8.1719 0v-4.5938h-5.7344v4.5938h-0.85938v-9.7969h0.85938v4.3906h5.7344v-4.3906h0.85938v9.7969z"/>
  </g>
  <g transform="translate(231.96 318.93)">
   <path d="m1.5781 0v-9.7969h5.7656v0.79688h-4.9062v3.6094h4.5469v0.78125h-4.5469v3.8125h5.0625v0.79688z"/>
  </g>
  <g transform="translate(246.08 318.93)">
   <path d="m1.5781 0v-9.7969h3.625c0.66406 0 1.2383 0.125 1.7188 0.375 0.48828 0.25 0.86719 0.60547 1.1406 1.0625 0.26953 0.44922 0.40625 0.98438 0.40625 1.6094 0 0.8125-0.22656 1.4844-0.67188 2.0156-0.44922 0.52344-1.0586 0.85156-1.8281 0.98438l2.6562 3.75h-1.0156l-2.6406-3.6875h-2.5312v3.6875zm0.85938-4.5h2.6875c0.76953 0 1.375-0.19531 1.8125-0.59375 0.44531-0.40625 0.67188-0.95703 0.67188-1.6562 0-0.6875-0.22656-1.2266-0.67188-1.625-0.4375-0.40625-1.043-0.60938-1.8125-0.60938h-2.6875z"/>
  </g>
  <g transform="translate(261.25 318.93)">
   <path d="m0.3125 0 4.0625-9.7969h0.8125l4.0469 9.7969h-0.89062l-1.0156-2.4688h-5.1094l-1 2.4688zm2.25-3.25h4.4375l-2.2188-5.3906z"/>
  </g>
  <g transform="translate(276.41 318.93)">
   <path d="m1.5781 0v-9.7969h3.1094c1.1328 0 2.0195 0.28125 2.6562 0.84375 0.63281 0.5625 0.95312 1.3555 0.95312 2.375 0 1.0234-0.32031 1.8125-0.95312 2.375-0.63672 0.5625-1.5234 0.84375-2.6562 0.84375h-2.25v3.3594zm0.85938-4.1406h2.2344c1.8516 0 2.7812-0.80469 2.7812-2.4219 0-1.6133-0.92969-2.4219-2.7812-2.4219h-2.2344z"/>
  </g>
  <g transform="translate(290.96 318.93)">
   <path d="m1.5781 0v-9.7969h0.85938v9.7969z"/>
  </g>
  <g transform="translate(300.58 318.93)">
   <path d="m1.5781 0v-9.7969h5.7656v0.79688h-4.9062v3.6094h4.5469v0.78125h-4.5469v3.8125h5.0625v0.79688z"/>
  </g>
  <g transform="translate(314.7 318.93)">
   <path d="m4.7344 0.1875c-0.75 0-1.4023-0.125-1.9531-0.375-0.55469-0.25781-0.98438-0.61719-1.2969-1.0781-0.3125-0.46875-0.48047-1.0156-0.5-1.6406h0.82812c0.050781 0.71875 0.33594 1.2812 0.85938 1.6875 0.51953 0.39844 1.207 0.59375 2.0625 0.59375 0.80078 0 1.4375-0.16406 1.9062-0.5 0.46875-0.33203 0.70312-0.78516 0.70312-1.3594 0-0.50781-0.21875-0.92578-0.65625-1.25-0.42969-0.32031-1.1367-0.58594-2.125-0.79688-1.1992-0.28125-2.0703-0.64062-2.6094-1.0781-0.54297-0.4375-0.8125-1.0234-0.8125-1.7656 0-0.78125 0.29688-1.4102 0.89062-1.8906 0.59375-0.47656 1.4141-0.71875 2.4688-0.71875 1.082 0 1.9297 0.26562 2.5469 0.79688 0.625 0.52344 0.95312 1.25 0.98438 2.1875h-0.82812c-0.042969-0.6875-0.30469-1.2188-0.78125-1.5938-0.46875-0.38281-1.1094-0.57812-1.9219-0.57812-0.80469 0-1.4219 0.16797-1.8594 0.5-0.4375 0.32422-0.65625 0.75781-0.65625 1.2969 0 0.48047 0.20703 0.88281 0.625 1.2031 0.41406 0.32422 1.1406 0.60547 2.1719 0.84375 1.2383 0.28125 2.1172 0.65234 2.6406 1.1094 0.51953 0.44922 0.78125 1.0273 0.78125 1.7344 0 0.8125-0.3125 1.4648-0.9375 1.9531-0.625 0.48047-1.4688 0.71875-2.5312 0.71875z"/>
  </g>
 </g>
 <g transform="matrix(.74827 0 0 .76373 4.5641 113.86)" clip-path="url(#5668376b10)">
  <path d="m245.24 72.402 16.672 28.867-16.672 28.922h-33.391l-16.676-28.922 16.676-28.867z" fill="#f97539"/>
 </g>
</svg>
